# xmcd
#
# Track frame offsets:
#	150
#	14084
#	29753
#	44125
#	57321
#	70450
#	82694
#	95126
#	108079
#	122408
#	137061
#	151268
#	164049
#	175779
#	187219
#	197826
#	208293
#	219595
#	230696
#	242434
#	255079
#	268956
#	279665
#	288543
#	300372
#	315146
#	329115
#	338737
#
# Disc length: 4700 seconds
#
# Revision: 1
# Processed by: cddbd v1.5.2PL0 Copyright (c) Steve Scherf et al.
# Submitted via: audiograbber 1.83.01
#
DISCID=ad125a1c
DTITLE=The Carter Family - The Acme Sessions 1952-56 - Cd 1
DYEAR=1952
DGENRE=Country
TTITLE0=Pretty Raindrops
TTITLE1=There's a Bright Side Somewhere
TTITLE2=Climbing Zion's Hill
TTITLE3=Longing for Home
TTITLE4=Railroading on the Great Divide
TTITLE5=Live on Down the Line
TTITLE6=No More Goodbyes (At Home with Our Saviour Above)
TTITLE7=On the Rock Where Moses Stood
TTITLE8=Storms Are on the Ocean
TTITLE9=Soldier's Beyond the Blue
TTITLE10=Sweet Fern
TTITLE11=Wildwood Flower
TTITLE12=Keep on the Sunny Side
TTITLE13=Sow 'em on the Mountain
TTITLE14=I'll Be Satisfied
TTITLE15=Room in Heaven for Me
TTITLE16=Gently Lead Me
TTITLE17=Ship Ahoy
TTITLE18=Hill Lone and Grey
TTITLE19=Beautiful Isle O'er the Sea
TTITLE20=My Wildwood Rose
TTITLE21=The Titanic
TTITLE22=When the Sunset Turns the Ocean Blue to Gold
TTITLE23=I'm Thinking Tonight of My Blue Eyes
TTITLE24=Little Moses
TTITLE25=Western Hobo
TTITLE26=Beautiful Home
TTITLE27=I Shall Not Be Moved
EXTD=
EXTT0=
EXTT1=
EXTT2=
EXTT3=
EXTT4=
EXTT5=
EXTT6=
EXTT7=
EXTT8=
EXTT9=
EXTT10=
EXTT11=
EXTT12=
EXTT13=
EXTT14=
EXTT15=
EXTT16=
EXTT17=
EXTT18=
EXTT19=
EXTT20=
EXTT21=
EXTT22=
EXTT23=
EXTT24=
EXTT25=
EXTT26=
EXTT27=
PLAYORDER=
